# xmcd CD database file
#
# Track frame offsets:
#	150
#	11915
#	29160
#	47555
#	66370
#	77452
#	97562
#	116002
#	130525
#	147132
#	164857
#
# Disc length: 2499 seconds
#
# Revision: 0
# Processed by: cddbd v1.5.2PL0 Copyright (c) Steve Scherf et al.
# Submitted via: CDex 1.51
#
DISCID=8f09c10b
DTITLE=Johnny Littlejohn - So-Called Friends
DYEAR=1900
DGENRE=Blues
TTITLE0=Bloody Tears
TTITLE1=Lottery Blues
TTITLE2=So-Called Friends
TTITLE3=Chips Flying Everywhere (I Can't Stay Here)
TTITLE4=Two-Way Street
TTITLE5=Just A Little Love
TTITLE6=I Felt So Good
TTITLE7=Seven Day Blues
TTITLE8=Lost In The Jungle
TTITLE9=Take One
TTITLE10=She's Too Much
EXTD=
EXTT0=
EXTT1=
EXTT2=
EXTT3=
EXTT4=
EXTT5=
EXTT6=
EXTT7=
EXTT8=
EXTT9=
EXTT10=
PLAYORDER=
